<svg xmlns="http://www.w3.org/2000/svg" viewBox="0 0 90 30" width="90" height="30"><g fill="none" fill-rule="evenodd"><path fill="#55307F" d="M77.991 23.998a6 6 0 0 1-6-6h-6c0 6.627 5.373 12 12 12s12-5.373 12-12h-6a6.012 6.012 0 0 1-6.013 6"/><path fill="#817E7D" d="M83.997 12c-6.627 0-12-5.373-12-12h-6c0 9.941 8.059 18 18 18v-6z"/><path fill="#000" d="M83.995 0h5.997v17.998h-5.997z"/><path fill="#55307F" d="M53.997 12c-6.627 0-12-5.373-12-12h-6c0 9.941 8.059 18 18 18v-6z"/><path fill="#000" d="M47.999 23.998a6 6 0 0 1-6-6h-6c0 6.627 5.373 12 12 12s12-5.373 12-12h-6a6.022 6.022 0 0 1-6.013 6"/><path fill="#817E7D" d="M24 0v15a9 9 0 0 1-18 0H0c.05 8.102 6.524 14.7 14.624 14.903 8.1.203 14.897-6.063 15.352-14.152h.016V0H24z"/><path fill="#55307F" d="M14.996 0v6a9 9 0 0 1 9 9v15h6V15a14.988 14.988 0 0 0-15-15"/><path fill="#000" d="M0 15h6a9 9 0 0 1 9-9V0C6.716 0 0 6.716 0 15"/><path fill="#817E7D" d="M53.995 0h5.997v17.998h-5.997z"/></g></svg>
